<?xml version="1.0" encoding="UTF-8" standalone="no"?>
<!-- Created with Inkscape (http://www.inkscape.org/) -->

<svg
   width="130.8427mm"
   height="35.456356mm"
   viewBox="0 0 130.8427 35.456356"
   version="1.1"
   id="svg1135"
   inkscape:version="1.1 (c4e8f9e, 2021-05-24)"
   sodipodi:docname="FinalLogo.svg"
   xmlns:inkscape="http://www.inkscape.org/namespaces/inkscape"
   xmlns:sodipodi="http://sodipodi.sourceforge.net/DTD/sodipodi-0.dtd"
   xmlns="http://www.w3.org/2000/svg"
   xmlns:svg="http://www.w3.org/2000/svg">
  <sodipodi:namedview
     id="namedview1137"
     pagecolor="#505050"
     bordercolor="#ffffff"
     borderopacity="1"
     inkscape:pageshadow="0"
     inkscape:pageopacity="0"
     inkscape:pagecheckerboard="1"
     inkscape:document-units="mm"
     showgrid="false"
     inkscape:zoom="0.5567831"
     inkscape:cx="194.86942"
     inkscape:cy="164.33688"
     inkscape:window-width="1312"
     inkscape:window-height="847"
     inkscape:window-x="0"
     inkscape:window-y="25"
     inkscape:window-maximized="0"
     inkscape:current-layer="text2023" />
  <defs
     id="defs1132" />
  <g
     inkscape:label="Layer 1"
     inkscape:groupmode="layer"
     id="layer1"
     transform="translate(-88.227682,-114.88236)">
    <g
       aria-label="apur"
       transform="scale(1.0145407,0.9856677)"
       id="text2023"
       style="font-weight:900;font-size:47.2823px;line-height:0;font-family:Poppins;-inkscape-font-specification:'Poppins Heavy';stroke-width:0.295515;fill:#ffb900;fill-opacity:1">
      <path
         d="m 132.12278,147.7269 q -2.4114,0 -4.5391,-0.52011 -2.08042,-0.56739 -3.40433,-2.1277 -1.27662,-1.56032 -1.27662,-4.5391 0,-2.45868 0.89836,-4.019 0.94565,-1.6076 2.36412,-2.45868 1.46575,-0.85108 3.02606,-1.13477 1.56032,-0.33098 2.78966,-0.33098 0.99293,0 1.89129,0.0946 0.94565,0.0473 1.74945,0.18913 0.42554,0.14185 0.42554,-0.61467 0,-1.74944 -1.08749,-2.45868 -1.04022,-0.70923 -2.93151,-0.70923 -1.79672,0 -3.45161,0.66195 -1.60759,0.66195 -2.74237,1.22934 -0.5201,0.2837 -0.70923,0.18913 -0.14185,-0.0946 -0.23641,-0.61467 l -0.42555,-2.64781 q -0.0946,-0.61467 0,-0.8038 0.0946,-0.18913 0.52011,-0.47282 1.22934,-0.8038 3.12063,-1.27662 1.89129,-0.52011 4.019,-0.52011 3.21519,0 5.15377,0.75652 1.93857,0.70923 2.88422,1.93857 0.99293,1.22934 1.27662,2.83694 0.33098,1.56032 0.33098,3.26248 0.0473,1.98586 0,3.92443 0,1.89129 -0.0946,3.78259 -0.0946,1.89129 -0.28369,3.82986 -0.0946,0.52011 -0.2837,0.8038 -0.18913,0.23641 -0.75651,0.52011 -0.66195,0.33097 -1.74945,0.56738 -1.08749,0.18913 -2.36411,0.33098 -1.22934,0.18913 -2.31684,0.23641 -1.08749,0.0946 -1.79672,0.0946 z m 0.37826,-3.64074 q 0.37825,0 0.85108,-0.0473 0.47282,-0.0473 0.94564,-0.18913 0.47283,-0.18913 0.75652,-0.42554 0.33098,-0.23641 0.37826,-0.61467 0.14185,-1.13478 0.23641,-2.50597 0.0946,-1.37118 0,-2.6478 0,-0.61467 -0.47282,-0.85109 -0.47283,-0.33097 -1.37119,-0.37825 -0.85108,-0.0946 -1.41847,-0.0946 -0.42554,0 -1.08749,0.18913 -0.61467,0.14185 -1.18206,0.56739 -0.56739,0.42554 -0.94565,1.27662 -0.33097,0.85108 -0.33097,2.17499 0,1.04021 0.42554,1.84401 0.42554,0.8038 1.22934,1.27662 0.8038,0.42554 1.98586,0.42554 z"
         style="letter-spacing:-0.0591033px;word-spacing:-0.0118205px;fill:#ffb900;fill-opacity:1"
         id="path978" />
      <path
         d="m 146.11221,152.05192 q -0.18913,-1.70216 -0.33097,-5.29561 -0.0946,-3.59346 -0.0473,-9.22005 0,-1.6076 0.0473,-3.54617 0.0473,-1.98586 0.14184,-3.82987 0.14185,-1.84401 0.37826,-2.88422 0.0946,-0.52011 0.37826,-0.8038 0.28369,-0.33098 1.27662,-0.70924 0.99293,-0.33097 2.9315,-0.70923 1.98586,-0.37826 4.39726,-0.37826 4.63366,0 7.18691,2.69509 2.60052,2.64781 2.60052,8.36897 0,2.36412 -0.42554,4.25541 -0.37825,1.84401 -1.18205,3.26248 -0.8038,1.37118 -1.8913,2.26955 -1.04021,0.89836 -2.36411,1.37118 -0.85108,0.37826 -1.98586,0.56739 -1.13477,0.23641 -2.26955,0.23641 -1.13477,0.0473 -2.03314,-0.0946 -0.42554,-0.0473 -0.66195,-0.0946 -0.23641,0 -0.23641,0.33098 0,0.33097 -0.0473,1.04021 0,0.70923 0.0473,1.41847 0.0473,0.70923 0.0473,1.08749 0.0946,0.61467 0.0473,0.85108 0,0.2837 -0.70923,0.2837 h -4.49182 q -0.37826,0 -0.61467,-0.0946 -0.18913,-0.0946 -0.18913,-0.37826 z m 5.81573,-10.78036 q 0,0.33098 0.0946,0.47282 0.0946,0.0946 0.33098,0.14185 0.61467,0.23641 1.41847,0.37826 0.80379,0.14184 1.37118,0.14184 0.61467,0 1.22934,-0.23641 0.66195,-0.23641 1.22934,-0.89836 0.61467,-0.70924 0.94565,-2.03314 0.37826,-1.3239 0.37826,-3.54617 0,-3.64074 -1.04021,-5.01193 -1.04022,-1.37118 -2.6951,-1.37118 -0.75651,0 -1.51303,0.14184 -0.75652,0.14185 -1.27662,0.33098 -0.0946,0.0946 -0.18913,0.23641 -0.0946,0.14185 -0.0946,0.37826 -0.0473,0.99293 -0.0946,2.1277 0,1.13478 -0.0473,2.31684 0,1.13477 -0.0473,2.31683 0,1.13477 0,2.22227 0,1.04021 0,1.89129 z"
         style="font-weight:bold;font-family:Glory;-inkscape-font-specification:'Glory Bold';fill:#ffb900;fill-opacity:1"
         id="path980" />
      <path
         d="m 178.04549,147.60739 q -3.87715,0 -6.00485,-1.46575 -2.08042,-1.46576 -2.88422,-3.87715 -0.8038,-2.4114 -0.8038,-5.3429 0,-1.74945 0.0473,-3.64074 0.0946,-1.89129 0.23642,-3.68802 0.14184,-1.84401 0.33097,-3.35704 0.0946,-0.85108 0.2837,-0.99293 0.18912,-0.14185 0.85108,-0.14185 h 3.82986 q 0.66195,0 0.94565,0.0473 0.28369,0 0.14185,0.85108 0,0.18913 -0.0946,1.37118 -0.0473,1.18206 -0.14185,2.93151 -0.0946,1.70216 -0.14184,3.54617 -0.0473,1.79673 -0.0473,3.26248 0,2.97878 0.8038,4.39725 0.85109,1.37119 2.78966,1.37119 0.23641,0 0.66195,0 0.42554,-0.0473 0.85108,-0.14185 0.42554,-0.0946 0.70924,-0.28369 0.28369,-0.18913 0.28369,-0.52011 v -16.0287 q 0,-0.23641 0.0473,-0.5201 0.0473,-0.2837 0.33098,-0.2837 h 4.91736 q 0.18913,0 0.42554,0.0946 0.23641,0.0946 0.23641,0.5201 v 19.33846 q 0,0.56739 -0.33097,0.8038 -0.33098,0.23641 -1.37119,0.61467 -0.52011,0.18913 -1.74945,0.47282 -1.18205,0.23642 -2.60052,0.47283 -1.37119,0.18913 -2.55325,0.18913 z"
         style="font-weight:bold;font-family:Glory;-inkscape-font-specification:'Glory Bold';fill:#ffb900;fill-opacity:1"
         id="path982" />
      <path
         d="m 198.59482,124.91188 q 3.59346,0 5.91029,1.04021 0.47282,0.18913 0.5201,0.37826 0.0946,0.18913 0.0473,0.52011 l -0.85109,2.9315 q -0.0946,0.37826 -0.23641,0.47282 -0.14184,0.0473 -0.56738,-0.0946 -0.8038,-0.23641 -1.79673,-0.33098 -0.99293,-0.14184 -1.51304,-0.14184 -0.75651,0 -1.27662,0.0946 -0.5201,0.0473 -0.8038,0.14185 -0.28369,0.0946 -0.47282,0.18913 -0.18913,0.14184 -0.42554,0.33097 -0.18913,0.18913 -0.18913,0.85108 v 15.13034 q 0,0.66195 -0.18913,0.85108 -0.18913,0.14185 -0.66195,0.14185 h -4.58638 q -0.23642,0 -0.42554,-0.14185 -0.18913,-0.14185 -0.18913,-0.66195 v -18.91292 q 0,-0.75652 0.14184,-0.94565 0.18913,-0.23641 0.70924,-0.47282 1.41847,-0.66195 3.35704,-0.99293 1.98586,-0.37826 3.49889,-0.37826 z"
         style="font-weight:bold;font-family:Glory;-inkscape-font-specification:'Glory Bold';fill:#ffb900;fill-opacity:1"
         id="path984" />
    </g>
    <path
       style="fill:#ffb900;fill-opacity:1;stroke:none;stroke-width:0.249222;stroke-linecap:butt;stroke-linejoin:miter;stroke-miterlimit:4;stroke-dasharray:none;stroke-opacity:1"
       d="m 99.244911,115.45535 c 0,0 -0.06763,-0.20567 0.06505,-0.38676 0.132658,-0.18128 0.39163,-0.18623 0.39163,-0.18623 l 5.832149,0.004 c 0,0 0.27233,-0.003 0.45862,0.14066 0.18636,0.14419 0.25402,0.36145 0.25402,0.36145 l 6.28336,21.12592 c 0,0 0.16229,0.78546 0.30195,0.78033 0.13966,-0.004 0.29192,-0.77717 0.29192,-0.77717 l 6.26806,-21.033 c 0,0 0.0968,-0.33395 0.2403,-0.4394 0.14339,-0.10532 0.57703,-0.12719 0.57703,-0.12719 l 5.59882,-0.0107 c 0,0 0.32473,-0.0406 0.46352,0.12866 0.13879,0.16822 0.10573,0.48397 0.10573,0.48397 l -9.30309,28.99823 c 0,0 -0.0695,0.2138 -0.14659,0.28165 -0.077,0.0675 -0.39722,0.0841 -0.39722,0.0841 l -7.38382,-0.001 c 0,0 -0.27587,-0.0353 -0.36334,-0.0936 -0.0875,-0.0558 -0.19336,-0.32548 -0.19336,-0.32548 z"
       id="path95990"
       sodipodi:nodetypes="czcczcczcczcczcczcczcc"
       inkscape:export-filename="/Users/calebnorthcott/path95990.png"
       inkscape:export-xdpi="96"
       inkscape:export-ydpi="96" />
  </g>
</svg>
